<svg width="158" height="123" viewBox="0 0 158 123" fill="none" xmlns="http://www.w3.org/2000/svg">
<mask id="path-1-inside-1" fill="white">
<path fill-rule="evenodd" clip-rule="evenodd" d="M134.946 19.0292L158 0H0L47 35.8068L9 122.989L100.617 47.3657L87.5118 33.0001L79.9714 24.7342L91.1001 23.5794L134.946 19.0292ZM122.408 29.3787L98.6405 31.8452L107.566 41.6295L122.408 29.3787Z"/>
</mask>
<path fill-rule="evenodd" clip-rule="evenodd" d="M134.946 19.0292L158 0H0L47 35.8068L9 122.989L100.617 47.3657L87.5118 33.0001L79.9714 24.7342L91.1001 23.5794L134.946 19.0292ZM122.408 29.3787L98.6405 31.8452L107.566 41.6295L122.408 29.3787Z" fill="#00D1FF"/>
<path d="M158 0L161.819 4.62727L174.694 -6H158V0ZM134.946 19.0292L135.566 24.9972L137.368 24.8101L138.766 23.6565L134.946 19.0292ZM0 0V-6H-17.7764L-3.63609 4.77272L0 0ZM47 35.8068L52.5002 38.2042L54.3817 33.8877L50.6361 31.0341L47 35.8068ZM9 122.989L3.49977 120.591L12.8195 127.616L9 122.989ZM100.617 47.3657L104.436 51.993L109.298 47.9797L105.049 43.3221L100.617 47.3657ZM87.5118 33.0001L83.0791 37.0437L87.5118 33.0001ZM79.9714 24.7342L79.3521 18.7663L67.5254 19.9936L75.5387 28.7779L79.9714 24.7342ZM91.1001 23.5794L91.7194 29.5473L91.1001 23.5794ZM122.408 29.3787L126.227 34.006L141.548 21.3603L121.789 23.4108L122.408 29.3787ZM98.6405 31.8452L98.0212 25.8772L86.1945 27.1045L94.2078 35.8888L98.6405 31.8452ZM107.566 41.6295L103.133 45.6732L106.982 49.8918L111.386 46.2568L107.566 41.6295ZM154.181 -4.62727L131.127 14.4019L138.766 23.6565L161.819 4.62727L154.181 -4.62727ZM0 6H158V-6H0V6ZM50.6361 31.0341L3.63609 -4.77272L-3.63609 4.77272L43.3639 40.5795L50.6361 31.0341ZM14.5002 125.386L52.5002 38.2042L41.4998 33.4094L3.49977 120.591L14.5002 125.386ZM96.7972 42.7385L5.18053 118.361L12.8195 127.616L104.436 51.993L96.7972 42.7385ZM83.0791 37.0437L96.184 51.4094L105.049 43.3221L91.9445 28.9564L83.0791 37.0437ZM75.5387 28.7779L83.0791 37.0437L91.9445 28.9564L84.4041 20.6906L75.5387 28.7779ZM90.4808 17.6114L79.3521 18.7663L80.5908 30.7022L91.7194 29.5473L90.4808 17.6114ZM134.327 13.0613L90.4808 17.6114L91.7194 29.5473L135.566 24.9972L134.327 13.0613ZM121.789 23.4108L98.0212 25.8772L99.2598 37.8131L123.027 35.3467L121.789 23.4108ZM94.2078 35.8888L103.133 45.6732L111.999 37.5858L103.073 27.8015L94.2078 35.8888ZM118.588 24.7514L103.747 37.0022L111.386 46.2568L126.227 34.006L118.588 24.7514Z" fill="black" mask="url(#path-1-inside-1)"/>
<path d="M54.073 96.5438L48.0065 101.51L61.5127 118.009L57.4321 121.349L43.926 104.85L37.9411 109.749L35.2354 106.444L51.3674 93.2385L54.073 96.5438ZM74.8082 92.7913L66.9734 99.2047L71.3159 104.509L80.5108 96.9826L83.1942 100.261L69.9187 111.128L53.7069 91.3234L66.9552 80.4784L69.6609 83.7837L60.4932 91.2883L64.3568 96.0082L72.1916 89.5948L74.8082 92.7913ZM95.735 78.9773C97.3253 81.2345 97.9096 83.5579 97.488 85.9475C97.0755 88.3296 95.7086 90.4709 93.3872 92.3711C90.8481 94.4496 88.1509 95.2339 85.2954 94.7243C82.4416 94.1981 79.7936 92.4433 77.3514 89.4599L76.3605 88.2494C74.8017 86.3451 73.7639 84.3929 73.2473 82.3927C72.7306 80.3925 72.778 78.4985 73.3894 76.7108C74.0024 74.9066 75.1341 73.329 76.7844 71.978C79.0696 70.1074 81.4114 69.2127 83.81 69.2937C86.2086 69.3747 88.4223 70.4325 90.4511 72.4669L86.3705 75.8073C85.2241 74.6103 84.1088 73.9786 83.0245 73.9121C81.9419 73.8291 80.7749 74.2997 79.5235 75.3241C78.1633 76.4376 77.544 77.7623 77.6656 79.2984C77.7888 80.818 78.6801 82.6099 80.3396 84.6741L81.5644 86.1703C83.3162 88.3103 84.9186 89.611 86.3715 90.0724C87.8335 90.5264 89.2628 90.1818 90.6592 89.0387C91.9197 88.0069 92.6244 86.9529 92.7734 85.8769C92.924 84.7844 92.551 83.598 91.6544 82.3177L95.735 78.9773ZM119.933 70.1865L115.853 73.5268L108.905 65.0392L100.948 71.5528L107.895 80.0405L103.815 83.3808L87.6031 63.5763L91.6837 60.236L98.253 68.2612L106.21 61.7475L99.6408 53.7223L103.721 50.382L119.933 70.1865Z" fill="white"/>
<path d="M42.1053 82.2803C41.864 81.9856 41.5578 81.8615 41.1868 81.9079C40.8203 81.9506 40.3078 82.1432 39.6492 82.4857C38.9906 82.8283 38.3989 83.063 37.8741 83.1899C36.7224 83.4667 35.8365 83.2267 35.2165 82.4697C34.6967 81.8351 34.5297 81.0857 34.7155 80.2215C34.9014 79.3573 35.4068 78.5873 36.2318 77.9116C37.1111 77.1912 37.9987 76.8277 38.8946 76.821C39.795 76.8106 40.5292 77.1522 41.0973 77.8457L39.4451 79.1991C39.1852 78.8818 38.852 78.7154 38.4455 78.7C38.0353 78.68 37.6352 78.8297 37.2454 79.149C36.8828 79.446 36.6546 79.7731 36.5608 80.1302C36.4715 80.4835 36.542 80.8007 36.7722 81.0818C36.9801 81.3356 37.2482 81.4455 37.5763 81.4115C37.9044 81.3775 38.452 81.1676 39.219 80.7817C39.9823 80.3913 40.6292 80.1454 41.1598 80.0441C41.6911 79.9345 42.1584 79.9456 42.5617 80.0773C42.9695 80.2053 43.3349 80.4664 43.6579 80.8608C44.2 81.5226 44.3658 82.2844 44.1552 83.1461C43.9409 84.0033 43.3895 84.7958 42.5011 85.5235C41.8982 86.0174 41.272 86.3486 40.6223 86.5171C39.9727 86.6857 39.3605 86.6873 38.7857 86.5219C38.2109 86.3565 37.7434 86.0539 37.3833 85.6143L38.9879 84.2999C39.3299 84.6711 39.7241 84.8519 40.1706 84.8422C40.6133 84.8279 41.0591 84.637 41.5078 84.2694C41.943 83.9129 42.207 83.5603 42.3 83.2115C42.3893 82.8581 42.3244 82.5477 42.1053 82.2803ZM50.6791 77.3932C50.6619 78.3616 50.2068 79.2115 49.3139 79.943C48.5161 80.5965 47.7198 80.8587 46.9248 80.7297C46.1344 80.597 45.3772 80.0887 44.6532 79.2048L40.749 74.4385L42.4013 73.0852L46.2887 77.831C47.0536 78.7648 47.8236 78.9142 48.5987 78.2793C49.401 77.6221 49.7069 76.8906 49.5164 76.0847L45.1889 70.8017L46.8411 69.4483L52.8672 76.8051L51.3102 78.0805L50.6791 77.3932ZM58.0405 66.546C58.9724 67.6838 59.4585 68.8042 59.4987 69.9074C59.5352 71.0061 59.1183 71.9119 58.248 72.6247C57.4412 73.2857 56.578 73.5496 55.6586 73.4165L58.5157 76.9045L56.8635 78.2579L48.5205 68.0727L50.0435 66.8251L50.7242 67.5174C50.7265 66.5308 51.1447 65.6959 51.9787 65.0128C52.8762 64.2776 53.8536 64.0375 54.9107 64.2925C55.9688 64.5393 56.9842 65.2564 57.957 66.444L58.0405 66.546ZM56.2781 67.751C55.6766 67.0167 55.0522 66.5549 54.4048 66.3657C53.762 66.1727 53.1686 66.299 52.6247 66.7445C51.9493 67.2977 51.6926 67.9738 51.8547 68.7727L54.528 72.0363C55.295 72.3624 56.0185 72.2469 56.6984 71.69C57.2242 71.2593 57.4618 70.7125 57.4111 70.0496C57.3612 69.3785 56.9836 68.6123 56.2781 67.751ZM65.8868 60.1189C66.8187 61.2566 67.3048 62.3771 67.345 63.4803C67.3815 64.579 66.9646 65.4847 66.0943 66.1976C65.2875 66.8585 64.4243 67.1225 63.5049 66.9894L66.362 70.4774L64.7098 71.8308L56.3668 61.6456L57.8898 60.398L58.5705 61.0902C58.5728 60.1037 58.991 59.2688 59.825 58.5856C60.7225 57.8505 61.6998 57.6104 62.757 57.8654C63.815 58.1122 64.8304 58.8293 65.8032 60.0169L65.8868 60.1189ZM64.1244 61.3239C63.5229 60.5896 62.8985 60.1278 62.2511 59.9385C61.6083 59.7456 61.0149 59.8718 60.471 60.3174C59.7956 60.8706 59.5389 61.5467 59.701 62.3456L62.3743 65.6092C63.1413 65.9352 63.8648 65.8198 64.5447 65.2629C65.0705 64.8322 65.308 64.2854 65.2574 63.6225C65.2075 62.9513 64.8299 62.1852 64.1244 61.3239ZM72.0002 61.1327L70.348 62.4861L61.7933 52.0425L63.4455 50.6891L72.0002 61.1327ZM75.563 58.2143L73.9108 59.5677L67.8846 52.211L69.5368 50.8576L75.563 58.2143ZM66.2176 50.3839C66.0097 50.1301 65.9164 49.8543 65.9377 49.5567C65.9635 49.2553 66.1259 48.9821 66.4251 48.737C66.7243 48.492 67.0241 48.3865 67.3247 48.4205C67.6253 48.4546 67.8795 48.5985 68.0874 48.8523C68.2916 49.1016 68.3808 49.377 68.355 49.6784C68.3255 49.9752 68.1612 50.2462 67.862 50.4912C67.5629 50.7363 67.2649 50.844 66.968 50.8145C66.672 50.7768 66.4219 50.6332 66.2176 50.3839ZM80.7194 54.2178C79.6723 55.0755 78.5532 55.443 77.3621 55.3204C76.1718 55.1896 75.1274 54.5757 74.2289 53.4788L74.0618 53.2748C73.4603 52.5405 73.0643 51.7704 72.8738 50.9645C72.6841 50.1504 72.7135 49.3727 72.9621 48.6313C73.2107 47.8899 73.65 47.2611 74.2801 46.745C75.2818 45.9245 76.3164 45.611 77.3839 45.8045C78.4559 45.9944 79.4709 46.6741 80.4288 47.8435L80.9746 48.5098L76.1676 52.4474C76.715 53.014 77.3103 53.3292 77.9534 53.3932C78.6011 53.4534 79.1947 53.2626 79.7341 52.8208C80.4911 52.2007 80.8569 51.3898 80.8316 50.388L82.4185 50.5083C82.484 51.1893 82.37 51.8546 82.0764 52.5041C81.7836 53.1453 81.3313 53.7165 80.7194 54.2178ZM75.3593 48.0764C74.906 48.4477 74.6688 48.9071 74.6477 49.4546C74.6311 49.9984 74.8164 50.5852 75.2034 51.2149L78.3514 48.6362L78.2512 48.5139C77.762 47.9906 77.273 47.6942 76.7845 47.6248C76.2922 47.5509 75.8171 47.7014 75.3593 48.0764ZM87.3336 45.2324C87.0922 44.9378 86.7861 44.8137 86.415 44.8601C86.0486 44.9027 85.536 45.0954 84.8774 45.4379C84.2188 45.7805 83.6271 46.0152 83.1024 46.142C81.9507 46.4189 81.0648 46.1788 80.4447 45.4219C79.9249 44.7873 79.758 44.0379 79.9438 43.1737C80.1297 42.3095 80.6351 41.5395 81.46 40.8637C82.3394 40.1434 83.227 39.7799 84.1229 39.7732C85.0232 39.7628 85.7575 40.1044 86.3255 40.7979L84.6733 42.1512C84.4134 41.8339 84.0802 41.6676 83.6737 41.6521C83.2635 41.6322 82.8635 41.7819 82.4737 42.1012C82.111 42.3982 81.8828 42.7253 81.789 43.0823C81.6998 43.4357 81.7703 43.7529 82.0005 44.0339C82.2084 44.2878 82.4764 44.3977 82.8046 44.3637C83.1327 44.3297 83.6803 44.1198 84.4473 43.7338C85.2106 43.3434 85.8575 43.0975 86.388 42.9962C86.9194 42.8867 87.3867 42.8978 87.7899 43.0295C88.1977 43.1574 88.5632 43.4186 88.8862 43.813C89.4283 44.4747 89.594 45.2365 89.3834 46.0983C89.1691 46.9555 88.6178 47.748 87.7293 48.4757C87.1265 48.9695 86.5002 49.3007 85.8506 49.4693C85.201 49.6379 84.5887 49.6395 84.014 49.4741C83.4392 49.3086 82.9717 49.0061 82.6115 48.5664L84.2161 47.252C84.5581 47.6233 84.9524 47.8041 85.3988 47.7943C85.8416 47.78 86.2873 47.5891 86.7361 47.2215C87.1712 46.8651 87.4353 46.5125 87.5283 46.1636C87.6175 45.8103 87.5526 45.4999 87.3336 45.2324Z" fill="black"/>
</svg>
