<svg width="158" height="124" viewBox="0 0 158 124" fill="none" xmlns="http://www.w3.org/2000/svg">
<mask id="path-1-inside-1" fill="white">
<path fill-rule="evenodd" clip-rule="evenodd" d="M134.946 19.0292L158 0H0L47 35.8068L9 122.989L100.617 47.3657L87.5118 33.0001L79.9714 24.7342L91.1001 23.5794L134.946 19.0292ZM122.408 29.3787L98.6405 31.8452L107.566 41.6295L122.408 29.3787Z"/>
</mask>
<path fill-rule="evenodd" clip-rule="evenodd" d="M134.946 19.0292L158 0H0L47 35.8068L9 122.989L100.617 47.3657L87.5118 33.0001L79.9714 24.7342L91.1001 23.5794L134.946 19.0292ZM122.408 29.3787L98.6405 31.8452L107.566 41.6295L122.408 29.3787Z" fill="#00D1FF"/>
<path d="M158 0L161.819 4.62727L174.694 -6H158V0ZM134.946 19.0292L135.566 24.9972L137.368 24.8101L138.766 23.6565L134.946 19.0292ZM0 0V-6H-17.7764L-3.63609 4.77272L0 0ZM47 35.8068L52.5002 38.2042L54.3817 33.8877L50.6361 31.0341L47 35.8068ZM9 122.989L3.49977 120.591L12.8195 127.616L9 122.989ZM100.617 47.3657L104.436 51.993L109.298 47.9797L105.049 43.3221L100.617 47.3657ZM87.5118 33.0001L83.0791 37.0437L83.0791 37.0437L87.5118 33.0001ZM79.9714 24.7342L79.3521 18.7663L67.5254 19.9936L75.5387 28.7779L79.9714 24.7342ZM91.1001 23.5794L90.4808 17.6114L90.4808 17.6114L91.1001 23.5794ZM122.408 29.3787L126.227 34.006L141.548 21.3603L121.789 23.4108L122.408 29.3787ZM98.6405 31.8452L98.0212 25.8772L86.1945 27.1046L94.2078 35.8888L98.6405 31.8452ZM107.566 41.6295L103.133 45.6732L106.982 49.8918L111.386 46.2568L107.566 41.6295ZM154.181 -4.62727L131.127 14.4019L138.766 23.6565L161.819 4.62727L154.181 -4.62727ZM0 6H158V-6H0V6ZM50.6361 31.0341L3.63609 -4.77272L-3.63609 4.77272L43.3639 40.5795L50.6361 31.0341ZM14.5002 125.386L52.5002 38.2042L41.4998 33.4094L3.49977 120.591L14.5002 125.386ZM96.7972 42.7385L5.18053 118.361L12.8195 127.616L104.436 51.993L96.7972 42.7385ZM83.0791 37.0437L96.184 51.4094L105.049 43.3221L91.9445 28.9564L83.0791 37.0437ZM75.5387 28.7779L83.0791 37.0437L91.9445 28.9564L84.4041 20.6906L75.5387 28.7779ZM90.4808 17.6114L79.3521 18.7663L80.5908 30.7022L91.7194 29.5473L90.4808 17.6114ZM134.327 13.0613L90.4808 17.6114L91.7194 29.5473L135.566 24.9972L134.327 13.0613ZM121.789 23.4108L98.0212 25.8772L99.2598 37.8131L123.027 35.3467L121.789 23.4108ZM94.2078 35.8888L103.133 45.6732L111.999 37.5858L103.073 27.8015L94.2078 35.8888ZM118.588 24.7514L103.747 37.0022L111.386 46.2568L126.227 34.006L118.588 24.7514Z" fill="black" mask="url(#path-1-inside-1)"/>
<path d="M51.073 97.5438L45.0065 102.51L58.5127 119.009L54.4321 122.349L40.926 105.85L34.9411 110.749L32.2354 107.444L48.3674 94.2385L51.073 97.5438ZM71.8082 93.7913L63.9734 100.205L68.3159 105.509L77.5108 97.9826L80.1942 101.261L66.9187 112.128L50.7069 92.3234L63.9552 81.4784L66.6609 84.7837L57.4932 92.2883L61.3568 97.0082L69.1916 90.5948L71.8082 93.7913ZM92.735 79.9773C94.3253 82.2345 94.9096 84.5579 94.488 86.9475C94.0755 89.3296 92.7086 91.4709 90.3872 93.3711C87.8481 95.4496 85.1509 96.2339 82.2954 95.7243C79.4416 95.1981 76.7936 93.4433 74.3514 90.4599L73.3605 89.2494C71.8017 87.3451 70.7639 85.3929 70.2473 83.3927C69.7306 81.3925 69.778 79.4985 70.3894 77.7108C71.0024 75.9066 72.1341 74.329 73.7844 72.978C76.0696 71.1074 78.4114 70.2127 80.81 70.2937C83.2086 70.3747 85.4223 71.4325 87.4511 73.4669L83.3705 76.8073C82.2241 75.6103 81.1088 74.9786 80.0245 74.9121C78.9419 74.8291 77.7749 75.2997 76.5235 76.3241C75.1633 77.4376 74.544 78.7623 74.6656 80.2984C74.7888 81.818 75.6801 83.6099 77.3396 85.6741L78.5644 87.1703C80.3162 89.3103 81.9186 90.611 83.3715 91.0724C84.8335 91.5264 86.2628 91.1818 87.6592 90.0387C88.9197 89.0069 89.6244 87.9529 89.7734 86.8769C89.924 85.7844 89.551 84.598 88.6544 83.3177L92.735 79.9773ZM116.933 71.1865L112.853 74.5268L105.905 66.0392L97.9475 72.5528L104.895 81.0405L100.815 84.3808L84.6031 64.5763L88.6837 61.236L95.253 69.2612L103.21 62.7475L96.6408 54.7223L100.721 51.382L116.933 71.1865Z" fill="white"/>
<path d="M51.073 97.5438L51.7065 98.3176L52.4803 97.6842L51.8468 96.9104L51.073 97.5438ZM45.0065 102.51L44.3731 101.736L43.5993 102.369L44.2327 103.143L45.0065 102.51ZM58.5127 119.009L59.1461 119.783L59.9199 119.149L59.2865 118.376L58.5127 119.009ZM54.4321 122.349L53.6583 122.983L54.2917 123.757L55.0655 123.123L54.4321 122.349ZM40.926 105.85L41.6998 105.217L41.0663 104.443L40.2925 105.076L40.926 105.85ZM34.9411 110.749L34.1673 111.383L34.8007 112.157L35.5745 111.523L34.9411 110.749ZM32.2354 107.444L31.602 106.67L30.8282 107.304L31.4616 108.077L32.2354 107.444ZM48.3674 94.2385L49.1412 93.6051L48.5077 92.8313L47.7339 93.4647L48.3674 94.2385ZM50.4396 96.77L44.3731 101.736L45.64 103.284L51.7065 98.3176L50.4396 96.77ZM44.2327 103.143L57.7389 119.642L59.2865 118.376L45.7804 101.876L44.2327 103.143ZM57.8792 118.235L53.7986 121.576L55.0655 123.123L59.1461 119.783L57.8792 118.235ZM55.2059 121.716L41.6998 105.217L40.1521 106.484L53.6583 122.983L55.2059 121.716ZM40.2925 105.076L34.3076 109.975L35.5745 111.523L41.5594 106.624L40.2925 105.076ZM35.7149 110.116L33.0092 106.811L31.4616 108.077L34.1673 111.383L35.7149 110.116ZM32.8688 108.218L49.0008 95.0123L47.7339 93.4647L31.602 106.67L32.8688 108.218ZM47.5936 94.872L50.2992 98.1772L51.8468 96.9104L49.1412 93.6051L47.5936 94.872ZM71.8082 93.7913L72.4416 94.5651L73.2154 93.9316L72.582 93.1578L71.8082 93.7913ZM63.9734 100.205L63.34 99.4309L62.5662 100.064L63.1996 100.838L63.9734 100.205ZM68.3159 105.509L67.5421 106.143L68.1755 106.917L68.9493 106.283L68.3159 105.509ZM77.5108 97.9826L78.2846 97.3492L77.6512 96.5754L76.8774 97.2088L77.5108 97.9826ZM80.1942 101.261L80.8277 102.034L81.6015 101.401L80.968 100.627L80.1942 101.261ZM66.9187 112.128L66.1449 112.761L66.7783 113.535L67.5521 112.902L66.9187 112.128ZM50.7069 92.3234L50.0735 91.5496L49.2997 92.183L49.9331 92.9568L50.7069 92.3234ZM63.9552 81.4784L64.729 80.845L64.0956 80.0712L63.3218 80.7046L63.9552 81.4784ZM66.6609 84.7837L67.2943 85.5575L68.0682 84.9241L67.4347 84.1503L66.6609 84.7837ZM57.4932 92.2883L56.8598 91.5145L56.0859 92.148L56.7194 92.9218L57.4932 92.2883ZM61.3568 97.0082L60.583 97.6417L61.2165 98.4155L61.9903 97.782L61.3568 97.0082ZM69.1916 90.5948L69.9654 89.9614L69.332 89.1876L68.5582 89.821L69.1916 90.5948ZM71.1748 93.0174L63.34 99.4309L64.6069 100.979L72.4416 94.5651L71.1748 93.0174ZM63.1996 100.838L67.5421 106.143L69.0897 104.876L64.7472 99.5713L63.1996 100.838ZM68.9493 106.283L78.1443 98.7564L76.8774 97.2088L67.6824 104.736L68.9493 106.283ZM76.737 98.616L79.4204 101.894L80.968 100.627L78.2846 97.3492L76.737 98.616ZM79.5608 100.487L66.2853 111.354L67.5521 112.902L80.8277 102.034L79.5608 100.487ZM67.6925 111.494L51.4807 91.69L49.9331 92.9568L66.1449 112.761L67.6925 111.494ZM51.3403 93.0972L64.5887 82.2522L63.3218 80.7046L50.0735 91.5496L51.3403 93.0972ZM63.1814 82.1119L65.8871 85.4171L67.4347 84.1503L64.729 80.845L63.1814 82.1119ZM66.0275 84.0099L56.8598 91.5145L58.1266 93.0621L67.2943 85.5575L66.0275 84.0099ZM56.7194 92.9218L60.583 97.6417L62.1306 96.3748L58.267 91.6549L56.7194 92.9218ZM61.9903 97.782L69.825 91.3686L68.5582 89.821L60.7234 96.2344L61.9903 97.782ZM68.4178 91.2282L71.0344 94.4247L72.582 93.1578L69.9654 89.9614L68.4178 91.2282ZM92.735 79.9773L93.5525 79.4014L92.9334 78.5226L92.1016 79.2035L92.735 79.9773ZM94.488 86.9475L93.5032 86.7737L93.5027 86.7768L94.488 86.9475ZM82.2954 95.7243L82.1141 96.7077L82.1197 96.7087L82.2954 95.7243ZM70.3894 77.7108L71.3356 78.0344L71.3362 78.0325L70.3894 77.7108ZM87.4511 73.4669L88.0845 74.2407L88.9382 73.5419L88.1592 72.7608L87.4511 73.4669ZM83.3705 76.8073L82.6483 77.499L83.2882 78.167L84.0039 77.5811L83.3705 76.8073ZM80.0245 74.9121L79.9481 75.9091L79.9557 75.9097L79.9633 75.9102L80.0245 74.9121ZM74.6656 80.2984L73.6687 80.3773L73.6689 80.3792L74.6656 80.2984ZM77.3396 85.6741L76.5602 86.3006L76.5658 86.3075L77.3396 85.6741ZM83.3715 91.0724L83.0689 92.0255L83.075 92.0274L83.3715 91.0724ZM89.7734 86.8769L90.7639 87.014L90.764 87.0135L89.7734 86.8769ZM88.6544 83.3177L88.021 82.5439L87.3032 83.1315L87.8353 83.8913L88.6544 83.3177ZM91.9176 80.5533C93.3775 82.6255 93.8721 84.6833 93.5033 86.7737L95.4728 87.1212C95.9472 84.4325 95.2731 81.8435 93.5525 79.4014L91.9176 80.5533ZM93.5027 86.7768C93.1404 88.8691 91.9356 90.8113 89.7538 92.5973L91.0206 94.1449C93.4816 92.1304 95.0107 89.7902 95.4734 87.1181L93.5027 86.7768ZM89.7538 92.5973C87.4076 94.5179 84.9994 95.1911 82.4711 94.7398L82.1197 96.7087C85.3024 97.2768 88.2887 96.3812 91.0206 94.1449L89.7538 92.5973ZM82.4767 94.7408C79.9226 94.2699 77.4673 92.6876 75.1253 89.8265L73.5776 91.0934C76.12 94.1991 78.9606 96.1263 82.1141 96.7077L82.4767 94.7408ZM75.1253 89.8265L74.1343 88.6159L72.5867 89.8828L73.5776 91.0934L75.1253 89.8265ZM74.1343 88.6159C72.65 86.8027 71.6896 84.9781 71.2155 83.1426L69.2791 83.6428C69.8382 85.8076 70.9534 87.8875 72.5867 89.8828L74.1343 88.6159ZM71.2155 83.1426C70.743 81.3133 70.7933 79.62 71.3356 78.0344L69.4432 77.3872C68.7627 79.3771 68.7183 81.4717 69.2791 83.6428L71.2155 83.1426ZM71.3362 78.0325C71.8821 76.4259 72.8944 74.9989 74.4179 73.7518L73.151 72.2042C71.3737 73.6591 70.1227 75.3873 69.4425 77.3891L71.3362 78.0325ZM74.4179 73.7518C76.5604 71.998 78.6725 71.222 80.7762 71.2931L80.8438 69.2943C78.1503 69.2033 75.5788 70.2169 73.151 72.2042L74.4179 73.7518ZM80.7762 71.2931C82.8724 71.364 84.856 72.2809 86.743 74.1731L88.1592 72.7608C85.9885 70.5841 83.5447 69.3855 80.8438 69.2943L80.7762 71.2931ZM86.8177 72.6931L82.7371 76.0335L84.0039 77.5811L88.0845 74.2407L86.8177 72.6931ZM84.0927 76.1156C82.8611 74.8296 81.5249 74.0022 80.0858 73.914L79.9633 75.9102C80.6926 75.9549 81.5872 76.391 82.6483 77.499L84.0927 76.1156ZM80.101 73.915C78.6603 73.8045 77.2447 74.4415 75.8901 75.5503L77.1569 77.0979C78.3051 76.158 79.2235 75.8536 79.9481 75.9091L80.101 73.915ZM75.8901 75.5503C74.3177 76.8374 73.5173 78.4647 73.6687 80.3773L75.6625 80.2195C75.5707 79.0599 76.0089 78.0377 77.1569 77.0979L75.8901 75.5503ZM73.6689 80.3792C73.8163 82.1976 74.8571 84.1821 76.5602 86.3006L78.119 85.0475C76.5032 83.0376 75.7613 81.4383 75.6623 80.2176L73.6689 80.3792ZM76.5658 86.3075L77.7906 87.8037L79.3382 86.5369L78.1134 85.0406L76.5658 86.3075ZM77.7906 87.8037C79.5789 89.9883 81.3341 91.4747 83.0689 92.0255L83.6742 90.1193C82.5031 89.7474 81.0536 88.6324 79.3382 86.5369L77.7906 87.8037ZM83.075 92.0274C84.9189 92.6 86.6901 92.1243 88.2927 90.8125L87.0258 89.2648C85.8354 90.2393 84.7481 90.4528 83.6681 90.1174L83.075 92.0274ZM88.2927 90.8125C89.6529 89.6989 90.5666 88.4395 90.7639 87.014L88.7828 86.7398C88.6822 87.4664 88.1864 88.3148 87.0258 89.2648L88.2927 90.8125ZM90.764 87.0135C90.9612 85.5834 90.4545 84.1448 89.4736 82.744L87.8353 83.8913C88.6475 85.0511 88.8868 85.9853 88.7827 86.7403L90.764 87.0135ZM89.2879 84.0915L93.3685 80.7511L92.1016 79.2035L88.021 82.5439L89.2879 84.0915ZM116.933 71.1865L117.567 71.9603L118.34 71.3269L117.707 70.553L116.933 71.1865ZM112.853 74.5268L112.079 75.1602L112.712 75.934L113.486 75.3006L112.853 74.5268ZM105.905 66.0392L106.679 65.4057L106.045 64.6319L105.271 65.2654L105.905 66.0392ZM97.9475 72.5528L97.3141 71.779L96.5403 72.4125L97.1737 73.1863L97.9475 72.5528ZM104.895 81.0405L105.529 81.8143L106.303 81.1809L105.669 80.407L104.895 81.0405ZM100.815 84.3808L100.041 85.0142L100.674 85.788L101.448 85.1546L100.815 84.3808ZM84.6031 64.5763L83.9696 63.8025L83.1958 64.4359L83.8293 65.2097L84.6031 64.5763ZM88.6837 61.236L89.4575 60.6025L88.824 59.8287L88.0502 60.4622L88.6837 61.236ZM95.253 69.2612L94.4792 69.8946L95.1126 70.6684L95.8864 70.035L95.253 69.2612ZM103.21 62.7475L103.844 63.5213L104.617 62.8879L103.984 62.1141L103.21 62.7475ZM96.6408 54.7223L96.0074 53.9485L95.2336 54.5819L95.867 55.3557L96.6408 54.7223ZM100.721 51.382L101.495 50.7485L100.862 49.9747L100.088 50.6082L100.721 51.382ZM116.3 70.4127L112.219 73.753L113.486 75.3006L117.567 71.9603L116.3 70.4127ZM113.626 73.8934L106.679 65.4057L105.131 66.6726L112.079 75.1602L113.626 73.8934ZM105.271 65.2654L97.3141 71.779L98.581 73.3266L106.538 66.813L105.271 65.2654ZM97.1737 73.1863L104.122 81.6739L105.669 80.407L98.7213 71.9194L97.1737 73.1863ZM104.262 80.2667L100.181 83.607L101.448 85.1546L105.529 81.8143L104.262 80.2667ZM101.589 83.7474L85.3769 63.9429L83.8293 65.2097L100.041 85.0142L101.589 83.7474ZM85.2365 65.3501L89.3171 62.0098L88.0502 60.4622L83.9696 63.8025L85.2365 65.3501ZM87.9099 61.8694L94.4792 69.8946L96.0268 68.6277L89.4575 60.6025L87.9099 61.8694ZM95.8864 70.035L103.844 63.5213L102.577 61.9737L94.6196 68.4873L95.8864 70.035ZM103.984 62.1141L97.4146 54.0889L95.867 55.3557L102.436 63.3809L103.984 62.1141ZM97.2743 55.4961L101.355 52.1558L100.088 50.6082L96.0074 53.9485L97.2743 55.4961ZM99.9476 52.0154L116.159 71.8199L117.707 70.553L101.495 50.7485L99.9476 52.0154Z" fill="black"/>
<path d="M46.4676 77.4076C46.2531 77.1457 45.981 77.0353 45.6512 77.0766C45.3254 77.1145 44.8698 77.2857 44.2844 77.5902C43.699 77.8947 43.173 78.1033 42.7066 78.2161C41.6829 78.4622 40.8954 78.2488 40.3442 77.5759C39.8822 77.0119 39.7338 76.3457 39.899 75.5775C40.0642 74.8093 40.5134 74.1249 41.2467 73.5242C42.0284 72.884 42.8174 72.5608 43.6137 72.5549C44.414 72.5457 45.0667 72.8493 45.5716 73.4657L44.103 74.6687C43.872 74.3867 43.5758 74.2388 43.2145 74.2251C42.8498 74.2073 42.4942 74.3404 42.1477 74.6242C41.8254 74.8882 41.6226 75.1789 41.5392 75.4963C41.4598 75.8104 41.5225 76.0924 41.7271 76.3422C41.9119 76.5678 42.1502 76.6655 42.4419 76.6353C42.7335 76.6051 43.2203 76.4185 43.9021 76.0755C44.5805 75.7284 45.1556 75.5099 45.6271 75.4198C46.0995 75.3224 46.5148 75.3323 46.8733 75.4493C47.2358 75.5631 47.5606 75.7953 47.8477 76.1458C48.3296 76.734 48.4769 77.4112 48.2897 78.1772C48.0993 78.9392 47.6091 79.6436 46.8194 80.2905C46.2836 80.7294 45.7269 81.0238 45.1494 81.1736C44.572 81.3235 44.0278 81.3249 43.5169 81.1779C43.006 81.0308 42.5904 80.7619 42.2703 80.3711L43.6966 79.2028C44.0006 79.5328 44.351 79.6934 44.7479 79.6848C45.1414 79.6721 45.5377 79.5024 45.9366 79.1756C46.3234 78.8588 46.5581 78.5454 46.6407 78.2353C46.7201 77.9212 46.6624 77.6453 46.4676 77.4076ZM54.0888 73.0635C54.0735 73.9243 53.669 74.6798 52.8753 75.33C52.1661 75.9108 51.4583 76.1439 50.7517 76.0293C50.0491 75.9113 49.376 75.4595 48.7324 74.6738L45.2621 70.4371L46.7307 69.2341L50.1862 73.4527C50.8661 74.2827 51.5505 74.4155 52.2395 73.8511C52.9527 73.2669 53.2246 72.6167 53.0553 71.9004L49.2086 67.2044L50.6773 66.0014L56.0338 72.5407L54.6498 73.6744L54.0888 73.0635ZM60.6323 63.4216C61.4607 64.4329 61.8927 65.4288 61.9285 66.4095C61.9609 67.386 61.5903 68.1912 60.8167 68.8249C60.0995 69.4123 59.3323 69.6469 58.515 69.5287L61.0547 72.6291L59.5861 73.8321L52.1701 64.7786L53.5239 63.6697L54.1289 64.285C54.1309 63.408 54.5026 62.6659 55.244 62.0586C56.0418 61.4052 56.9105 61.1918 57.8503 61.4184C58.7907 61.6378 59.6933 62.2753 60.558 63.3309L60.6323 63.4216ZM59.0657 64.4927C58.531 63.84 57.976 63.4295 57.4006 63.2612C56.8292 63.0897 56.3017 63.2019 55.8182 63.598C55.2179 64.0897 54.9897 64.6907 55.1338 65.4008L57.5101 68.3018C58.1918 68.5916 58.8349 68.489 59.4393 67.994C59.9067 67.6111 60.1178 67.1251 60.0728 66.5358C60.0285 65.9393 59.6928 65.2582 59.0657 64.4927ZM67.6067 57.7086C68.4351 58.7199 68.8672 59.7158 68.9029 60.6965C68.9354 61.6731 68.5648 62.4782 67.7912 63.1119C67.074 63.6993 66.3068 63.9339 65.4895 63.8157L68.0292 66.9161L66.5605 68.1191L59.1445 59.0656L60.4983 57.9567L61.1033 58.572C61.1054 57.695 61.4771 56.9529 62.2185 56.3456C63.0162 55.6922 63.885 55.4788 64.8247 55.7054C65.7652 55.9248 66.6678 56.5623 67.5325 57.6179L67.6067 57.7086ZM66.0402 58.7797C65.5055 58.127 64.9505 57.7165 64.375 57.5482C63.8036 57.3767 63.2762 57.4889 62.7927 57.885C62.1923 58.3768 61.9642 58.9777 62.1082 59.6878L64.4845 62.5888C65.1663 62.8786 65.8094 62.776 66.4137 62.281C66.8811 61.8981 67.0923 61.4121 67.0473 60.8228C67.0029 60.2263 66.6672 59.5452 66.0402 58.7797ZM73.0409 58.6097L71.5722 59.8127L63.9681 50.5295L65.4367 49.3265L73.0409 58.6097ZM76.2078 56.0156L74.7392 57.2186L69.3826 50.6793L70.8512 49.4763L76.2078 56.0156ZM67.9008 49.0552C67.716 48.8296 67.633 48.5845 67.652 48.3199C67.6749 48.052 67.8193 47.8091 68.0852 47.5913C68.3512 47.3735 68.6177 47.2797 68.8849 47.31C69.152 47.3402 69.378 47.4682 69.5629 47.6938C69.7444 47.9154 69.8237 48.1602 69.8007 48.4281C69.7745 48.6919 69.6284 48.9328 69.3625 49.1506C69.0966 49.3684 68.8317 49.4642 68.5678 49.438C68.3047 49.4044 68.0824 49.2768 67.9008 49.0552ZM80.7912 52.4631C79.8605 53.2255 78.8658 53.5522 77.807 53.4432C76.749 53.3269 75.8206 52.7813 75.0219 51.8062L74.8734 51.6249C74.3387 50.9722 73.9867 50.2877 73.8174 49.5713C73.6488 48.8477 73.675 48.1563 73.8959 47.4973C74.1169 46.8383 74.5074 46.2794 75.0674 45.8207C75.9579 45.0913 76.8775 44.8126 77.8264 44.9847C78.7793 45.1534 79.6815 45.7576 80.533 46.7971L81.0181 47.3894L76.7452 50.8895C77.2318 51.3931 77.7609 51.6733 78.3326 51.7301C78.9084 51.7837 79.436 51.6141 79.9154 51.2213C80.5883 50.6702 80.9135 49.9493 80.891 49.0589L82.3016 49.1658C82.3598 49.7711 82.2584 50.3625 81.9975 50.9398C81.7373 51.5098 81.3352 52.0176 80.7912 52.4631ZM76.0268 47.0041C75.6239 47.3342 75.413 47.7425 75.3942 48.2292C75.3795 48.7126 75.5441 49.2341 75.8882 49.7939L78.6864 47.5017L78.5973 47.393C78.1624 46.9278 77.7279 46.6644 77.2936 46.6027C76.856 46.537 76.4337 46.6708 76.0268 47.0041ZM86.6705 44.4761C86.456 44.2142 86.1839 44.1039 85.8541 44.1451C85.5283 44.1831 85.0727 44.3543 84.4873 44.6588C83.9019 44.9633 83.3759 45.1719 82.9095 45.2847C81.8858 45.5308 81.0983 45.3174 80.5471 44.6445C80.0851 44.0804 79.9367 43.4143 80.1019 42.6461C80.2671 41.8779 80.7163 41.1935 81.4496 40.5928C82.2313 39.9525 83.0203 39.6294 83.8166 39.6235C84.6169 39.6142 85.2696 39.9178 85.7745 40.5343L84.3059 41.7373C84.0749 41.4553 83.7787 41.3074 83.4173 41.2937C83.0527 41.2759 82.6971 41.409 82.3506 41.6928C82.0283 41.9568 81.8254 42.2475 81.7421 42.5649C81.6627 42.879 81.7254 43.161 81.93 43.4108C82.1148 43.6364 82.3531 43.7341 82.6448 43.7039C82.9364 43.6737 83.4232 43.4871 84.105 43.1441C84.7834 42.797 85.3585 42.5785 85.83 42.4884C86.3024 42.391 86.7177 42.4009 87.0762 42.5179C87.4387 42.6317 87.7635 42.8638 88.0506 43.2144C88.5325 43.8026 88.6798 44.4798 88.4926 45.2458C88.3021 46.0077 87.812 46.7122 87.0223 47.359C86.4865 47.798 85.9298 48.0924 85.3523 48.2422C84.7749 48.3921 84.2307 48.3935 83.7198 48.2465C83.2089 48.0994 82.7933 47.8305 82.4732 47.4397L83.8995 46.2713C84.2035 46.6013 84.5539 46.762 84.9508 46.7534C85.3443 46.7407 85.7406 46.571 86.1395 46.2442C86.5263 45.9274 86.761 45.6139 86.8436 45.3039C86.923 44.9898 86.8653 44.7139 86.6705 44.4761Z" fill="black"/>
</svg>
