<svg width="116" height="63" viewBox="0 0 116 63" fill="none" xmlns="http://www.w3.org/2000/svg">
<g style="mix-blend-mode:color-burn" filter="url(#filter0_d)">
<path d="M18.4734 17.2731L18.5199 19.9367L11.6809 20.0561L12.0724 42.4807L8.79686 42.5378L8.40544 20.1132L1.53049 20.2332L1.48399 17.5697L18.4734 17.2731ZM40.7552 31.3584C40.7661 31.9823 40.7416 32.6428 40.6818 33.34L24.9162 33.6152C25.0701 35.5568 25.7566 37.069 26.9756 38.1519C28.2183 39.2104 29.7035 39.7245 31.4312 39.6944C32.847 39.6697 34.0172 39.3252 34.9417 38.6609C35.8899 37.9723 36.5463 37.0727 36.9109 35.9622L40.4384 35.9006C39.9436 37.8055 38.9148 39.3717 37.3519 40.5992C35.7887 41.8026 33.8313 42.4249 31.4796 42.466C29.6079 42.4986 27.9208 42.108 26.4184 41.2941C24.94 40.4798 23.7674 39.3121 22.9007 37.791C22.0336 36.2459 21.5823 34.4535 21.5467 32.4138C21.5111 30.3741 21.8878 28.5792 22.6769 27.0292C23.4659 25.4792 24.5852 24.2835 26.0348 23.4421C27.5079 22.5762 29.2043 22.1266 31.124 22.0931C32.9957 22.0604 34.6586 22.4394 36.1126 23.2302C37.5666 24.0209 38.6902 25.1295 39.4832 26.5558C40.2998 27.9578 40.7238 29.5587 40.7552 31.3584ZM37.3598 30.7335C37.338 29.4857 37.0434 28.4227 36.476 27.5445C35.9081 26.6423 35.1403 25.9716 34.1725 25.5324C33.2283 25.0688 32.1802 24.847 31.0284 24.8671C29.3727 24.896 27.9661 25.4487 26.8087 26.525C25.6753 27.601 25.041 29.0763 24.9057 30.9509L37.3598 30.7335ZM43.8675 32.0242C43.8319 29.9845 44.2088 28.2016 44.9983 26.6756C45.7874 25.1256 46.8945 23.9181 48.3196 23.0531C49.7687 22.1877 51.4291 21.7386 53.3009 21.706C55.7245 21.6637 57.7264 22.2168 59.3067 23.3654C60.911 24.5136 61.9833 26.1271 62.5237 28.206L58.9962 28.2676C58.6393 27.0736 57.9629 26.1373 56.9669 25.4585C55.9949 24.7794 54.789 24.4524 53.3492 24.4775C51.4775 24.5102 49.9771 25.1845 48.8479 26.5004C47.7182 27.7923 47.1739 29.6141 47.215 31.9657C47.2565 34.3414 47.8644 36.167 49.0389 37.4427C50.2133 38.7184 51.7364 39.3399 53.6081 39.3073C55.0479 39.2821 56.2418 38.9253 57.1899 38.2366C58.1381 37.5479 58.7812 36.5766 59.1194 35.3225L62.6468 35.2609C62.1541 37.2858 61.1265 38.924 59.5641 40.1755C58.0013 41.4029 56.0321 42.0374 53.6565 42.0789C51.7848 42.1115 50.1097 41.7207 48.6312 40.9064C47.1768 40.0916 46.0282 38.9235 45.1856 37.402C44.3429 35.8805 43.9035 34.0878 43.8675 32.0242ZM76.5679 21.2638C78.0556 21.2379 79.4051 21.5383 80.6162 22.1653C81.8269 22.7683 82.7793 23.6998 83.4734 24.9599C84.1915 26.2195 84.5665 27.7612 84.5983 29.5849L84.8013 41.2112L81.5617 41.2677L81.367 30.1094C81.3326 28.1417 80.8145 26.6505 79.8127 25.6359C78.8104 24.5972 77.4574 24.0927 75.7536 24.1225C74.0259 24.1526 72.6555 24.7166 71.6425 25.8145C70.6535 26.9119 70.1771 28.4925 70.2131 30.5561L70.4034 41.4625L67.1279 41.5197L66.663 14.8837L69.9385 14.8265L70.1082 24.5451C70.7385 23.5259 71.6127 22.7305 72.7309 22.1589C73.8731 21.5869 75.1521 21.2885 76.5679 21.2638Z" fill="url(#paint0_angular)"/>
</g>
<g filter="url(#filter1_d)">
<path d="M39.576 54.084C39.024 54.084 38.528 53.988 38.088 53.796C37.656 53.596 37.316 53.324 37.068 52.98C36.82 52.628 36.692 52.224 36.684 51.768H37.848C37.888 52.16 38.048 52.492 38.328 52.764C38.616 53.028 39.032 53.16 39.576 53.16C40.096 53.16 40.504 53.032 40.8 52.776C41.104 52.512 41.256 52.176 41.256 51.768C41.256 51.448 41.168 51.188 40.992 50.988C40.816 50.788 40.596 50.636 40.332 50.532C40.068 50.428 39.712 50.316 39.264 50.196C38.712 50.052 38.268 49.908 37.932 49.764C37.604 49.62 37.32 49.396 37.08 49.092C36.848 48.78 36.732 48.364 36.732 47.844C36.732 47.388 36.848 46.984 37.08 46.632C37.312 46.28 37.636 46.008 38.052 45.816C38.476 45.624 38.96 45.528 39.504 45.528C40.288 45.528 40.928 45.724 41.424 46.116C41.928 46.508 42.212 47.028 42.276 47.676H41.076C41.036 47.356 40.868 47.076 40.572 46.836C40.276 46.588 39.884 46.464 39.396 46.464C38.94 46.464 38.568 46.584 38.28 46.824C37.992 47.056 37.848 47.384 37.848 47.808C37.848 48.112 37.932 48.36 38.1 48.552C38.276 48.744 38.488 48.892 38.736 48.996C38.992 49.092 39.348 49.204 39.804 49.332C40.356 49.484 40.8 49.636 41.136 49.788C41.472 49.932 41.76 50.16 42 50.472C42.24 50.776 42.36 51.192 42.36 51.72C42.36 52.128 42.252 52.512 42.036 52.872C41.82 53.232 41.5 53.524 41.076 53.748C40.652 53.972 40.152 54.084 39.576 54.084ZM49.799 47.424V54H48.707V53.028C48.499 53.364 48.207 53.628 47.831 53.82C47.463 54.004 47.055 54.096 46.607 54.096C46.095 54.096 45.635 53.992 45.227 53.784C44.819 53.568 44.495 53.248 44.255 52.824C44.023 52.4 43.907 51.884 43.907 51.276V47.424H44.987V51.132C44.987 51.78 45.151 52.28 45.479 52.632C45.807 52.976 46.255 53.148 46.823 53.148C47.407 53.148 47.867 52.968 48.203 52.608C48.539 52.248 48.707 51.724 48.707 51.036V47.424H49.799ZM52.7348 48.636C52.9508 48.26 53.2708 47.948 53.6948 47.7C54.1268 47.444 54.6268 47.316 55.1948 47.316C55.7788 47.316 56.3068 47.456 56.7787 47.736C57.2587 48.016 57.6348 48.412 57.9068 48.924C58.1788 49.428 58.3148 50.016 58.3148 50.688C58.3148 51.352 58.1788 51.944 57.9068 52.464C57.6348 52.984 57.2587 53.388 56.7787 53.676C56.3068 53.964 55.7788 54.108 55.1948 54.108C54.6348 54.108 54.1388 53.984 53.7068 53.736C53.2828 53.48 52.9588 53.164 52.7348 52.788V57.12H51.6428V47.424H52.7348V48.636ZM57.1988 50.688C57.1988 50.192 57.0988 49.76 56.8988 49.392C56.6988 49.024 56.4268 48.744 56.0828 48.552C55.7468 48.36 55.3748 48.264 54.9668 48.264C54.5668 48.264 54.1948 48.364 53.8508 48.564C53.5148 48.756 53.2428 49.04 53.0348 49.416C52.8348 49.784 52.7348 50.212 52.7348 50.7C52.7348 51.196 52.8348 51.632 53.0348 52.008C53.2428 52.376 53.5148 52.66 53.8508 52.86C54.1948 53.052 54.5668 53.148 54.9668 53.148C55.3748 53.148 55.7468 53.052 56.0828 52.86C56.4268 52.66 56.6988 52.376 56.8988 52.008C57.0988 51.632 57.1988 51.192 57.1988 50.688ZM60.8441 48.636C61.0601 48.26 61.3801 47.948 61.8041 47.7C62.2361 47.444 62.7361 47.316 63.3041 47.316C63.8881 47.316 64.4161 47.456 64.8881 47.736C65.3681 48.016 65.7441 48.412 66.0161 48.924C66.2881 49.428 66.4241 50.016 66.4241 50.688C66.4241 51.352 66.2881 51.944 66.0161 52.464C65.7441 52.984 65.3681 53.388 64.8881 53.676C64.4161 53.964 63.8881 54.108 63.3041 54.108C62.7441 54.108 62.2481 53.984 61.8161 53.736C61.3921 53.48 61.0681 53.164 60.8441 52.788V57.12H59.7521V47.424H60.8441V48.636ZM65.3081 50.688C65.3081 50.192 65.2081 49.76 65.0081 49.392C64.8081 49.024 64.5361 48.744 64.1921 48.552C63.8561 48.36 63.4841 48.264 63.0761 48.264C62.6761 48.264 62.3041 48.364 61.9601 48.564C61.6241 48.756 61.3521 49.04 61.1441 49.416C60.9441 49.784 60.8441 50.212 60.8441 50.7C60.8441 51.196 60.9441 51.632 61.1441 52.008C61.3521 52.376 61.6241 52.66 61.9601 52.86C62.3041 53.052 62.6761 53.148 63.0761 53.148C63.4841 53.148 63.8561 53.052 64.1921 52.86C64.5361 52.66 64.8081 52.376 65.0081 52.008C65.2081 51.632 65.3081 51.192 65.3081 50.688ZM68.9535 45.12V54H67.8615V45.12H68.9535ZM71.3786 46.356C71.1706 46.356 70.9946 46.284 70.8506 46.14C70.7066 45.996 70.6346 45.82 70.6346 45.612C70.6346 45.404 70.7066 45.228 70.8506 45.084C70.9946 44.94 71.1706 44.868 71.3786 44.868C71.5786 44.868 71.7466 44.94 71.8826 45.084C72.0266 45.228 72.0986 45.404 72.0986 45.612C72.0986 45.82 72.0266 45.996 71.8826 46.14C71.7466 46.284 71.5786 46.356 71.3786 46.356ZM71.9066 47.424V54H70.8146V47.424H71.9066ZM79.7678 50.46C79.7678 50.668 79.7558 50.888 79.7318 51.12H74.4758C74.5158 51.768 74.7358 52.276 75.1358 52.644C75.5438 53.004 76.0358 53.184 76.6118 53.184C77.0838 53.184 77.4758 53.076 77.7878 52.86C78.1078 52.636 78.3318 52.34 78.4598 51.972H79.6358C79.4598 52.604 79.1078 53.12 78.5798 53.52C78.0518 53.912 77.3958 54.108 76.6118 54.108C75.9878 54.108 75.4278 53.968 74.9318 53.688C74.4438 53.408 74.0598 53.012 73.7798 52.5C73.4998 51.98 73.3598 51.38 73.3598 50.7C73.3598 50.02 73.4958 49.424 73.7678 48.912C74.0398 48.4 74.4198 48.008 74.9078 47.736C75.4038 47.456 75.9718 47.316 76.6118 47.316C77.2358 47.316 77.7878 47.452 78.2678 47.724C78.7478 47.996 79.1158 48.372 79.3718 48.852C79.6358 49.324 79.7678 49.86 79.7678 50.46ZM78.6398 50.232C78.6398 49.816 78.5478 49.46 78.3638 49.164C78.1798 48.86 77.9278 48.632 77.6078 48.48C77.2958 48.32 76.9478 48.24 76.5638 48.24C76.0118 48.24 75.5398 48.416 75.1478 48.768C74.7638 49.12 74.5438 49.608 74.4878 50.232H78.6398ZM83.5372 54.108C83.0332 54.108 82.5812 54.024 82.1812 53.856C81.7812 53.68 81.4652 53.44 81.2332 53.136C81.0012 52.824 80.8732 52.468 80.8492 52.068H81.9772C82.0092 52.396 82.1612 52.664 82.4332 52.872C82.7132 53.08 83.0772 53.184 83.5252 53.184C83.9412 53.184 84.2692 53.092 84.5092 52.908C84.7492 52.724 84.8692 52.492 84.8692 52.212C84.8692 51.924 84.7412 51.712 84.4852 51.576C84.2292 51.432 83.8332 51.292 83.2972 51.156C82.8092 51.028 82.4092 50.9 82.0972 50.772C81.7932 50.636 81.5292 50.44 81.3052 50.184C81.0892 49.92 80.9812 49.576 80.9812 49.152C80.9812 48.816 81.0812 48.508 81.2812 48.228C81.4812 47.948 81.7652 47.728 82.1332 47.568C82.5012 47.4 82.9212 47.316 83.3932 47.316C84.1212 47.316 84.7092 47.5 85.1572 47.868C85.6052 48.236 85.8452 48.74 85.8772 49.38H84.7852C84.7612 49.036 84.6212 48.76 84.3652 48.552C84.1172 48.344 83.7812 48.24 83.3572 48.24C82.9652 48.24 82.6532 48.324 82.4212 48.492C82.1892 48.66 82.0732 48.88 82.0732 49.152C82.0732 49.368 82.1412 49.548 82.2772 49.692C82.4212 49.828 82.5972 49.94 82.8052 50.028C83.0212 50.108 83.3172 50.2 83.6932 50.304C84.1652 50.432 84.5492 50.56 84.8452 50.688C85.1412 50.808 85.3932 50.992 85.6012 51.24C85.8172 51.488 85.9292 51.812 85.9372 52.212C85.9372 52.572 85.8372 52.896 85.6372 53.184C85.4372 53.472 85.1532 53.7 84.7852 53.868C84.4252 54.028 84.0092 54.108 83.5372 54.108Z" fill="black"/>
</g>
<defs>
<filter id="filter0_d" x="1.48399" y="14.8265" width="93.3173" height="35.7113" filterUnits="userSpaceOnUse" color-interpolation-filters="sRGB">
<feFlood flood-opacity="0" result="BackgroundImageFix"/>
<feColorMatrix in="SourceAlpha" type="matrix" values="0 0 0 0 0 0 0 0 0 0 0 0 0 0 0 0 0 0 127 0"/>
<feOffset dx="6" dy="4"/>
<feGaussianBlur stdDeviation="2"/>
<feColorMatrix type="matrix" values="0 0 0 0 0 0 0 0 0 0 0 0 0 0 0 0 0 0 0.25 0"/>
<feBlend mode="normal" in2="BackgroundImageFix" result="effect1_dropShadow"/>
<feBlend mode="normal" in="SourceGraphic" in2="effect1_dropShadow" result="shape"/>
</filter>
<filter id="filter1_d" x="36.684" y="44.868" width="59.2532" height="17.252" filterUnits="userSpaceOnUse" color-interpolation-filters="sRGB">
<feFlood flood-opacity="0" result="BackgroundImageFix"/>
<feColorMatrix in="SourceAlpha" type="matrix" values="0 0 0 0 0 0 0 0 0 0 0 0 0 0 0 0 0 0 127 0"/>
<feOffset dx="8" dy="3"/>
<feGaussianBlur stdDeviation="1"/>
<feColorMatrix type="matrix" values="0 0 0 0 0 0 0 0 0 0 0 0 0 0 0 0 0 0 0.25 0"/>
<feBlend mode="normal" in2="BackgroundImageFix" result="effect1_dropShadow"/>
<feBlend mode="normal" in="SourceGraphic" in2="effect1_dropShadow" result="shape"/>
</filter>
<radialGradient id="paint0_angular" cx="0" cy="0" r="1" gradientUnits="userSpaceOnUse" gradientTransform="translate(37 31) rotate(65.9245) scale(51.4782 102.069)">
<stop offset="0.322917" stop-color="#04DDFB"/>
<stop offset="0.395833"/>
</radialGradient>
</defs>
</svg>
