<svg width="1058" height="670" viewBox="0 0 1058 670" fill="none" xmlns="http://www.w3.org/2000/svg">
<mask id="path-1-inside-1" fill="white">
<path fill-rule="evenodd" clip-rule="evenodd" d="M1058 39C1058 17.4609 1040.54 0 1019 0H39C17.4609 0 0 17.4609 0 39V631C0 652.539 17.4609 670 39 670H1019C1040.54 670 1058 652.539 1058 631V39ZM40 74C40 52.4609 57.4609 35 79 35H979C1000.54 35 1018 52.4609 1018 74V592C1018 613.539 1000.54 631 979 631H79C57.4609 631 40 613.539 40 592V74Z"/>
</mask>
<path fill-rule="evenodd" clip-rule="evenodd" d="M1058 39C1058 17.4609 1040.54 0 1019 0H39C17.4609 0 0 17.4609 0 39V631C0 652.539 17.4609 670 39 670H1019C1040.54 670 1058 652.539 1058 631V39ZM40 74C40 52.4609 57.4609 35 79 35H979C1000.54 35 1018 52.4609 1018 74V592C1018 613.539 1000.54 631 979 631H79C57.4609 631 40 613.539 40 592V74Z" fill="url(#paint0_angular)" style="mix-blend-mode:multiply"/>
<path d="M39 8H1019V-8H39V8ZM8 631V39H-8V631H8ZM1019 662H39V678H1019V662ZM1050 39V631H1066V39H1050ZM979 27H79V43H979V27ZM1026 592V74H1010V592H1026ZM79 639H979V623H79V639ZM32 74V592H48V74H32ZM79 623C61.8792 623 48 609.121 48 592H32C32 617.957 53.0426 639 79 639V623ZM1010 592C1010 609.121 996.121 623 979 623V639C1004.96 639 1026 617.957 1026 592H1010ZM79 27C53.0426 27 32 48.0426 32 74H48C48 56.8792 61.8792 43 79 43V27ZM979 43C996.121 43 1010 56.8792 1010 74H1026C1026 48.0426 1004.96 27 979 27V43ZM1019 678C1044.96 678 1066 656.957 1066 631H1050C1050 648.121 1036.12 662 1019 662V678ZM-8 631C-8 656.957 13.0426 678 39 678V662C21.8792 662 8 648.121 8 631H-8ZM1019 8C1036.12 8 1050 21.8792 1050 39H1066C1066 13.0426 1044.96 -8 1019 -8V8ZM39 -8C13.0426 -8 -8 13.0426 -8 39H8C8 21.8792 21.8792 8 39 8V-8Z" fill="#00FD74" mask="url(#path-1-inside-1)"/>
<defs>
<radialGradient id="paint0_angular" cx="0" cy="0" r="1" gradientUnits="userSpaceOnUse" gradientTransform="translate(264.5 335) rotate(51.7071) scale(426.832 674.012)">
<stop offset="0.0988475" stop-color="#F1F50C"/>
<stop offset="0.291667" stop-color="#DD0C0C"/>
<stop offset="0.306973" stop-color="#F37A0A"/>
<stop offset="0.8125" stop-color="#250BC5"/>
</radialGradient>
</defs>
</svg>
